<svg xmlns="http://www.w3.org/2000/svg" viewBox="0 0 1600 900">
<defs>
  <linearGradient id="g" x1="0" y1="0" x2="1" y2="1">
    <stop stop-color="#51070b"/>
    <stop offset="1" stop-color="#0d1b2a"/>
  </linearGradient>
  <radialGradient id="glow" cx="78%" cy="18%" r="55%">
    <stop offset="0" stop-color="#ffffff" stop-opacity="0.16"/>
    <stop offset="1" stop-color="#ffffff" stop-opacity="0"/>
  </radialGradient>
  <linearGradient id="panel" x1="0" y1="0" x2="0" y2="1">
    <stop offset="0" stop-color="#000000" stop-opacity="0.22"/>
    <stop offset="1" stop-color="#000000" stop-opacity="0.08"/>
  </linearGradient>
</defs>
<rect width="1600" height="900" fill="url(#g)"/>
<rect width="1600" height="900" fill="url(#glow)"/>
<circle cx="1245" cy="185" r="170" fill="#ffffff" fill-opacity="0.07"/>
<rect x="78" y="86" width="560" height="728" rx="44" fill="url(#panel)"/>
<path d="M870 690c120-180 214-286 355-398 66-52 152-67 212-54-64 22-129 76-159 119 86 9 153 61 177 123-39-25-95-39-151-32 34 63 37 134 6 202-53-72-133-110-236-106-59 2-128 27-204 74z" fill="#ffffff" fill-opacity="0.13"/>
</svg>